<svg width="229" height="99" viewBox="0 0 229 99" fill="none" xmlns="http://www.w3.org/2000/svg">
<path fill-rule="evenodd" clip-rule="evenodd" d="M204.412 50.3353C203.369 50.3353 202.638 50.0056 202.165 49.4088C201.701 48.8297 201.505 48.0368 201.505 47.0835C201.505 45.8719 201.791 44.9008 202.504 44.2238C203.199 43.5556 204.287 43.1992 205.901 43.1992H208.219V46.451C208.219 47.6715 207.809 48.5802 207.185 49.2217C206.445 49.9789 205.411 50.3353 204.412 50.3353ZM205.045 42.2549C202.62 42.2549 200.64 42.5667 199.294 43.3863C198.01 44.1703 197.279 45.4443 197.279 47.3953C197.279 48.99 197.769 50.1036 198.563 50.8253C199.499 51.6805 200.89 52.028 202.415 52.028C203.672 52.028 204.697 51.7696 205.527 51.3509C206.49 50.8609 207.194 50.1571 207.658 49.3998L208.255 48.4377L208.478 49.5513C208.647 50.4155 208.977 51.0302 209.495 51.4222C210.03 51.8231 210.796 52.0101 211.822 52.0101C211.956 52.0101 212.08 52.0101 212.196 52.0012V39.5377C212.196 36.9007 211.599 35.1634 210.431 34.1033C209.254 33.0342 207.453 32.6066 205.063 32.6066C202.941 32.6066 201.193 33.0787 199.989 33.9073C198.821 34.7091 198.17 35.8405 198.17 37.1947C198.17 37.8985 198.376 38.4864 198.759 38.8873C199.125 39.2615 199.668 39.4842 200.382 39.4842C201.095 39.4842 201.657 39.2971 202.031 38.9675C202.397 38.6379 202.593 38.1568 202.593 37.551C202.593 37.2303 202.531 36.8739 202.45 36.5176H201.033L200.944 36.0632C200.908 35.885 200.872 35.7336 200.872 35.5643C200.872 34.718 201.38 34.2191 202.085 33.9429C202.691 33.7024 203.44 33.64 204.091 33.64C205.732 33.64 206.766 34.1834 207.399 35.1812C208.005 36.1345 208.211 37.4797 208.211 39.1546V42.2905H205.027L205.045 42.2549Z" fill="white"/>
<path fill-rule="evenodd" clip-rule="evenodd" d="M192.856 29.8181V25.72L188.861 25.5775V52.0191H192.856V29.8181Z" fill="white"/>
<path fill-rule="evenodd" clip-rule="evenodd" d="M171.804 40.1435C171.893 38.2993 172.277 36.6423 173.052 35.4752C173.774 34.3972 174.809 33.7469 176.235 33.7469C177.582 33.7469 178.509 34.2458 179.098 35.2703C179.651 36.2147 179.882 37.6045 179.882 39.4575V40.6068H171.786L171.804 40.1435ZM167.497 42.5845C167.497 45.4977 168.282 47.912 169.824 49.5602C171.278 51.1193 173.436 52.0101 176.271 52.0101C178.197 52.0101 179.793 51.538 181.042 50.6827C182.219 49.872 183.092 48.7049 183.636 47.2617L182.165 46.7004C181.701 47.6804 181.149 48.4822 180.417 49.0613C179.57 49.7295 178.509 50.0947 177.091 50.0947C175.058 50.0947 173.73 49.2929 172.91 47.9031C172.125 46.5846 171.822 44.7316 171.804 42.5489V42.1034H183.904L183.931 41.5155C183.939 41.2215 183.948 40.9275 183.948 40.6691C183.948 37.9519 183.253 35.9563 182.013 34.6378C180.703 33.2391 178.759 32.5709 176.387 32.5709C173.783 32.5709 171.51 33.5242 169.914 35.306C168.398 36.9986 167.488 39.4664 167.488 42.5934L167.497 42.5845Z" fill="white"/>
<path fill-rule="evenodd" clip-rule="evenodd" d="M135.638 35.4841V52.0191H139.633V40.4464C139.633 38.8161 140.096 37.5866 140.837 36.7225C141.693 35.7247 142.896 35.2347 144.145 35.2347C145.58 35.2347 146.392 35.689 146.855 36.4908C147.283 37.2392 147.364 38.2637 147.364 39.502V52.0191H151.358V40.482C151.358 38.8072 151.822 37.5688 152.544 36.7136C153.409 35.6979 154.631 35.2347 155.87 35.2347C157.288 35.2347 158.099 35.689 158.563 36.4908C159 37.2392 159.089 38.2637 159.089 39.502V52.0191H163.084V39.0388C163.084 36.865 162.682 35.3416 161.817 34.3794C160.97 33.4351 159.642 32.9985 157.778 32.9985C156.432 32.9985 155.326 33.346 154.434 33.8894C153.302 34.5754 152.491 35.5732 151.911 36.5621L151.349 37.5243L151.091 36.4463C150.805 35.2525 150.27 34.3883 149.477 33.836C148.665 33.2747 147.569 33.0075 146.178 33.0075C144.483 33.0075 143.226 33.4707 142.263 34.1656C141.3 34.8694 140.623 35.8049 140.123 36.7492L139.998 36.9897L139.41 38.1033V32.6155L135.683 32.5798L135.638 35.493V35.4841Z" fill="white"/>
<path fill-rule="evenodd" clip-rule="evenodd" d="M118.394 29.8537L118.848 30.121L123.316 27.377L127.542 30.0853L128.006 29.827L125.179 25.9962C125.072 25.8447 124.947 25.72 124.822 25.6131C124.43 25.2924 123.94 25.1409 123.44 25.1498C122.932 25.1498 122.415 25.328 121.987 25.6398C121.818 25.7645 121.657 25.9071 121.523 26.0763L118.403 29.8537H118.394ZM122.255 50.3353C121.211 50.3353 120.48 50.0056 120.008 49.4087C119.544 48.8297 119.348 48.0368 119.348 47.0835C119.348 45.8719 119.633 44.9008 120.346 44.2238C121.042 43.5556 122.13 43.1992 123.735 43.1992H126.053V46.451C126.053 47.6715 125.643 48.5802 125.019 49.2217C124.279 49.9789 123.244 50.3353 122.246 50.3353H122.255ZM122.879 42.2549C120.453 42.2549 118.483 42.5667 117.127 43.3863C115.843 44.1703 115.112 45.4443 115.112 47.3953C115.112 48.99 115.603 50.1036 116.396 50.8253C117.333 51.6805 118.715 52.028 120.248 52.028C121.506 52.028 122.531 51.7696 123.36 51.3509C124.323 50.8609 125.028 50.1571 125.491 49.3998L126.089 48.4377L126.312 49.5513C126.481 50.4155 126.811 51.0302 127.328 51.4222C127.863 51.8231 128.63 52.0101 129.655 52.0101C129.789 52.0101 129.914 52.0101 130.03 52.0012V39.5377C130.03 36.9007 129.432 35.1634 128.264 34.1033C127.087 33.0342 125.286 32.6066 122.896 32.6066C120.774 32.6066 119.027 33.0787 117.823 33.9073C116.655 34.7091 116.004 35.8405 116.004 37.1946C116.004 37.8985 116.209 38.4864 116.592 38.8873C116.958 39.2615 117.502 39.4842 118.215 39.4842C118.929 39.4842 119.49 39.2971 119.865 38.9675C120.23 38.6379 120.427 38.1568 120.427 37.551C120.427 37.2303 120.364 36.8739 120.284 36.5176H118.866L118.777 36.0632C118.741 35.885 118.706 35.7336 118.706 35.5643C118.706 34.718 119.214 34.2191 119.918 33.9429C120.525 33.7024 121.274 33.64 121.925 33.64C123.565 33.64 124.6 34.1834 125.233 35.1812C125.839 36.1345 126.044 37.4797 126.044 39.1546V42.2905H122.861L122.879 42.2549Z" fill="white"/>
<path fill-rule="evenodd" clip-rule="evenodd" d="M99.9628 27.1899H101.684C103.895 27.1899 105.536 27.5374 106.641 28.4639C107.765 29.3993 108.309 30.8871 108.309 33.1411C108.309 35.395 107.765 36.8472 106.615 37.9073C105.473 38.9497 103.779 39.4486 101.461 39.4486H99.5259V27.1988H99.9717L99.9628 27.1899ZM95.1389 27.6354V52.019H99.517V41.0522H101.175C104.519 41.0522 107.542 40.5889 109.709 39.3149C111.813 38.0766 113.115 36.0276 113.115 32.8293C113.115 30.0051 111.991 28.2056 110.101 27.1187C108.148 25.9961 105.366 25.5863 102.156 25.5863H95.1389V27.6354Z" fill="white"/>
<path fill-rule="evenodd" clip-rule="evenodd" d="M216.851 73.3915C216.94 71.5474 217.323 69.8903 218.099 68.7232C218.821 67.6453 219.855 66.9949 221.282 66.9949C222.629 66.9949 223.556 67.4938 224.144 68.5183C224.697 69.4627 224.929 70.8525 224.929 72.7055V73.8548H216.833L216.851 73.3915ZM212.544 75.8325C212.544 78.7458 213.328 81.1601 214.871 82.8082C216.324 84.3673 218.482 85.2582 221.318 85.2582C223.244 85.2582 224.84 84.786 226.088 83.9307C227.265 83.12 228.139 81.953 228.683 80.5097L227.212 79.9485C226.748 80.9284 226.195 81.7302 225.464 82.3093C224.617 82.9775 223.556 83.3427 222.138 83.3427C220.105 83.3427 218.777 82.5409 217.956 81.1512C217.172 79.8326 216.868 77.9796 216.851 75.7969V75.3515H228.95L228.977 74.7635C228.986 74.4784 228.995 74.1755 228.995 73.926C228.995 71.2088 228.299 69.2132 227.06 67.8947C225.749 66.496 223.805 65.8279 221.434 65.8279C218.83 65.8279 216.556 66.7811 214.96 68.5629C213.444 70.2556 212.535 72.7233 212.535 75.8504L212.544 75.8325Z" fill="white"/>
<path fill-rule="evenodd" clip-rule="evenodd" d="M191.875 68.7322V85.2671H195.87V73.6142C195.87 71.9928 196.369 70.7634 197.181 69.9081C198.09 68.9549 199.374 68.4827 200.765 68.4827C202.245 68.4827 203.128 68.9282 203.645 69.721C204.136 70.4694 204.26 71.5028 204.26 72.759V85.276H208.255V72.2957C208.255 70.1309 207.791 68.6163 206.864 67.6542C205.946 66.7009 204.555 66.2644 202.682 66.2644C200.81 66.2644 199.561 66.7277 198.554 67.4315C197.537 68.1263 196.842 69.0618 196.36 70.0061L196.235 70.2467L195.87 70.8436V65.8368H191.875V68.75V68.7322Z" fill="white"/>
<path fill-rule="evenodd" clip-rule="evenodd" d="M183.244 68.7322V85.2671H187.239V65.8368L183.244 65.9793V68.7322ZM182.638 60.9101C182.638 61.6139 182.807 62.291 183.28 62.7454C183.672 63.1195 184.296 63.3512 185.241 63.3512C186.124 63.3512 186.775 63.1285 187.194 62.7276C187.631 62.3088 187.845 61.6674 187.845 60.8745C187.845 60.0371 187.613 59.4402 187.203 59.0571C186.748 58.6295 186.071 58.4335 185.241 58.4335C184.35 58.4335 183.717 58.674 183.306 59.066C182.843 59.5114 182.638 60.1707 182.638 60.9101Z" fill="white"/>
<path fill-rule="evenodd" clip-rule="evenodd" d="M168.594 80.4563C168.594 82.1935 169.04 83.3962 169.869 84.1534C170.698 84.9196 171.938 85.267 173.507 85.267C175.299 85.267 176.574 84.7771 177.484 83.8684C178.34 83.022 178.911 81.8015 179.303 80.2692L178.269 79.9841C177.948 81.0353 177.573 81.8371 177.118 82.4073C176.548 83.1111 175.861 83.4585 174.996 83.4585C174.131 83.4585 173.507 83.1824 173.106 82.5855C172.74 82.042 172.598 81.258 172.598 80.1801V67.3424H175.531V65.81H172.598V57.988H171.563L168.603 58.674V65.81H165.669V67.3424H168.603V80.4473L168.594 80.4563Z" fill="white"/>
<path fill-rule="evenodd" clip-rule="evenodd" d="M158.589 68.7322V85.2671H162.584V65.8368L158.589 65.9793V68.7322ZM157.983 60.9101C157.983 61.6139 158.153 62.291 158.625 62.7454C159.017 63.1195 159.642 63.3512 160.587 63.3512C161.478 63.3512 162.12 63.1285 162.54 62.7276C162.976 62.3088 163.19 61.6674 163.19 60.8745C163.19 60.0371 162.959 59.4402 162.548 59.0571C162.094 58.6295 161.416 58.4335 160.587 58.4335C159.695 58.4335 159.062 58.674 158.652 59.066C158.188 59.5114 157.983 60.1707 157.983 60.9101Z" fill="white"/>
<path fill-rule="evenodd" clip-rule="evenodd" d="M136.334 60.5983V85.2671H140.328V73.8815C140.328 72.1443 140.828 70.8525 141.63 69.9616C142.549 68.9549 143.842 68.4738 145.268 68.4738C146.695 68.4738 147.595 68.9192 148.113 69.7121C148.603 70.4694 148.719 71.4939 148.719 72.7412V85.2582H152.714V72.2779C152.714 70.0952 152.25 68.4649 151.314 67.3958C150.404 66.3446 149.013 65.819 147.141 65.819C145.571 65.819 144.341 66.3179 143.378 67.0484C142.406 67.7878 141.702 68.7678 141.202 69.7211L141.077 69.9616L140.328 71.1999V58.4424L136.334 58.5671V60.5983Z" fill="white"/>
<path fill-rule="evenodd" clip-rule="evenodd" d="M125.857 67.0395C126.793 67.0395 127.551 67.1731 128.095 67.4938C128.71 67.8502 129.04 68.4025 129.04 69.2043C129.04 69.3469 129.031 69.4805 129.004 69.632C128.987 69.7656 128.951 69.917 128.906 70.0952L128.826 70.4338H127.382C127.328 70.603 127.284 70.7723 127.248 70.9416C127.194 71.2177 127.159 71.485 127.159 71.7077C127.159 72.3314 127.382 72.8926 127.783 73.2846C128.166 73.6499 128.719 73.8815 129.406 73.8815C130.199 73.8815 130.868 73.6142 131.332 73.1064C131.777 72.6164 132.045 71.877 132.045 70.9327C132.045 69.4627 131.43 68.162 130.271 67.2444C129.156 66.3624 127.533 65.8368 125.456 65.8368C122.558 65.8368 120.168 66.7811 118.527 68.554C116.922 70.2912 116.013 72.8392 116.013 76.0909C116.013 78.9863 116.798 81.3115 118.305 82.8973C119.767 84.4296 121.934 85.2849 124.751 85.2849C126.784 85.2849 128.291 84.7236 129.397 83.9218C130.806 82.9062 131.572 81.4986 131.938 80.4206L130.431 79.8861C130.092 80.6523 129.638 81.4452 128.978 82.0866C128.175 82.8617 127.096 83.3962 125.572 83.3962C123.592 83.3962 122.281 82.6211 121.452 81.1868C120.667 79.8237 120.355 77.8549 120.355 75.3782C120.355 72.9015 120.783 70.701 121.711 69.2578C122.62 67.8413 123.975 67.0484 125.839 67.0484L125.857 67.0395Z" fill="white"/>
<path fill-rule="evenodd" clip-rule="evenodd" d="M103.806 83.6546C101.381 83.6546 99.7579 82.9329 98.5809 81.659C97.4931 80.483 96.8244 78.8527 96.2804 76.9016H94.4258L94.8716 78.4429C95.4869 80.2781 96.3429 81.5966 97.2256 82.541C98.0994 83.4764 98.9911 84.0466 99.6866 84.3762C100.177 84.5811 100.757 84.7949 101.452 84.9642C102.165 85.1334 103.012 85.2582 104.047 85.2582C106.757 85.2582 108.924 84.4029 110.413 82.9686C111.974 81.4719 112.821 79.3337 112.821 76.8482C112.821 73.9528 111.813 72.2244 110.244 71.0841C108.639 69.917 106.41 69.3201 104.091 68.7232C102.379 68.2689 100.872 67.8145 99.7757 67.1018C98.5988 66.3446 97.9033 65.32 97.9033 63.761C97.9033 62.4157 98.4472 61.3645 99.3656 60.634C100.302 59.8856 101.63 59.4936 103.155 59.4936C104.992 59.4936 106.41 59.9569 107.524 61.0081C108.568 61.9792 109.317 63.4492 109.896 65.4982H111.59C111.127 63.0661 110.181 61.4625 109.263 60.438C108.309 59.36 107.382 58.9146 107.07 58.772C106.624 58.5849 106.098 58.3889 105.456 58.2286C104.823 58.0771 104.065 57.9613 103.146 57.9613C100.543 57.9613 98.572 58.7809 97.2167 60.0549C95.683 61.4981 94.9162 63.5472 94.9162 65.6764C94.9162 67.966 95.5404 69.5251 96.7441 70.6565C97.9746 71.8146 99.8203 72.5452 102.237 73.1332H102.281C107.48 74.3982 110.039 75.0218 110.039 78.6389C110.039 80.2246 109.45 81.4897 108.354 82.3539C107.284 83.2002 105.75 83.6457 103.815 83.6457L103.806 83.6546Z" fill="white"/>
<path fill-rule="evenodd" clip-rule="evenodd" d="M1.14899 45.3463C12.0986 42.246 25.8569 45.6848 33.9086 55.6004C40.1057 63.1997 43.3691 72.3224 40.4802 84.6613C28.3625 87.9486 15.3353 83.7882 7.29254 74.0062C2.20115 68.1887 -2.15015 56.4646 1.14899 45.3463ZM4.20739 50.5491C4.18956 50.7362 4.17172 50.9144 4.16281 51.0836L4.12714 51.636C4.11822 51.8142 4.10931 52.0012 4.10039 52.1794L4.08256 52.7229V53.2752C4.08256 57.1239 4.84047 60.7854 6.23146 64.1352C7.66703 67.6096 9.78027 70.7367 12.4018 73.3559C15.0232 75.9751 18.144 78.0865 21.6215 79.5208C24.9653 80.9017 28.6389 81.6679 32.482 81.6679C32.6692 81.6679 32.8565 81.6679 33.0437 81.6679C33.2309 81.6679 33.4182 81.659 33.5965 81.6501C33.7838 81.6501 33.971 81.6322 34.1494 81.6233C34.3366 81.6144 34.5239 81.5966 34.7111 81.5877C34.8894 81.5699 35.0678 81.561 35.2639 81.5342C35.4512 81.5164 35.6384 81.4986 35.8168 81.4719C36.004 81.4541 36.1913 81.4273 36.3785 81.4006C36.5568 81.3739 36.7441 81.3472 36.9313 81.3204L37.1186 81.2937L37.1453 81.1155C37.1721 80.9284 37.1988 80.7503 37.2256 80.5721C37.2523 80.3939 37.2702 80.2068 37.2969 80.0197C37.3148 79.8415 37.3415 79.6545 37.3593 79.4674C37.3772 79.2803 37.395 79.1021 37.4039 78.9328L37.4396 78.3805C37.4485 78.2023 37.4574 78.0152 37.4663 77.8371L37.4842 77.2936V76.7413C37.4842 74.8437 37.3058 72.9906 36.9492 71.191C36.5836 69.3469 36.0397 67.574 35.3442 65.8813C34.6309 64.153 33.7481 62.5137 32.7138 60.9725C31.6795 59.4224 30.4846 57.9791 29.1739 56.6606C27.8542 55.3421 26.4097 54.1572 24.8583 53.1149C23.3246 52.0903 21.675 51.2084 19.9541 50.4867C18.26 49.7829 16.4856 49.2395 14.6398 48.8742C12.8476 48.5179 10.9929 48.3308 9.09369 48.3308C8.90644 48.3308 8.71919 48.3308 8.53195 48.3308C8.3447 48.3308 8.15745 48.3397 7.97912 48.3486C7.79187 48.3486 7.61353 48.3664 7.42629 48.3753C7.23904 48.3842 7.04287 48.4021 6.86454 48.411C6.68621 48.4288 6.50787 48.4377 6.31171 48.4555C6.12446 48.4733 5.93721 48.4911 5.75888 48.5179C5.57163 48.5446 5.38438 48.5624 5.19713 48.5891C5.0188 48.6159 4.83155 48.6426 4.6443 48.6693L4.46597 48.696L4.43922 48.8742C4.41247 49.0613 4.38572 49.2395 4.35897 49.4177C4.33222 49.5958 4.31439 49.7829 4.28764 49.97C4.26981 50.1482 4.25197 50.3353 4.23414 50.5224L4.20739 50.5491Z" fill="white"/>
<path fill-rule="evenodd" clip-rule="evenodd" d="M46.3472 44.6157C46.3205 45.0434 46.2848 45.6225 46.267 46.2639C46.2491 47.0033 46.2581 47.8586 46.3116 48.7049C48.0592 48.5446 49.7534 48.2328 51.394 47.7784C53.1417 47.2973 54.8358 46.6559 56.4408 45.8719C58.0726 45.079 59.6151 44.1347 61.0596 43.0656C62.513 41.9876 63.8684 40.776 65.0989 39.4486C66.3472 38.1033 67.4707 36.6512 68.4515 35.0921C69.4234 33.5509 70.2526 31.9117 70.9214 30.2011C71.5812 28.5174 72.0895 26.7623 72.4372 24.9449C72.7671 23.172 72.9455 21.3457 72.9455 19.4748V19.0828L72.9366 18.6018L72.9187 18.1652H72.8741C72.6245 18.1029 72.3659 18.0494 72.1073 17.996C71.8487 17.9425 71.5901 17.898 71.3405 17.8534C71.0819 17.8089 70.8233 17.7732 70.5647 17.7376C70.3062 17.702 70.0476 17.6663 69.789 17.6396C69.5126 17.604 69.2362 17.5772 68.9508 17.5594C68.6655 17.5327 68.3891 17.5149 68.1127 17.4971C67.8273 17.4792 67.542 17.4703 67.2656 17.4614C66.9892 17.4614 66.7128 17.4525 66.4274 17.4525C65.2148 17.4525 64.011 17.5238 62.834 17.6663C61.6392 17.8089 60.4622 18.0316 59.312 18.3167C58.1439 18.6107 57.0026 18.967 55.8969 19.3947C54.7734 19.8223 53.6945 20.3212 52.6424 20.8824C51.5813 21.4437 50.5559 22.0762 49.584 22.7622C48.6031 23.4482 47.658 24.2055 46.7752 25.0073C45.8836 25.8091 45.0454 26.6732 44.2518 27.573C43.4672 28.4817 42.736 29.435 42.0673 30.4239L41.9781 30.5664L41.8889 30.7C41.7373 30.9228 41.5947 31.1455 41.452 31.3771C41.2915 31.6355 41.1399 31.8938 40.9883 32.1522L40.7208 32.6155L40.5336 32.9629L40.3553 33.3104L40.1769 33.6578L39.8916 34.2369C39.7044 34.6289 39.526 35.0209 39.3566 35.4218C39.1872 35.8227 39.0267 36.2236 38.8751 36.6245C38.7235 37.0343 38.5809 37.4441 38.4471 37.8539C38.3134 38.2637 38.1974 38.6735 38.0815 39.0922C37.9656 39.5288 37.8497 39.9742 37.7516 40.4197C37.6535 40.8562 37.5644 41.3105 37.4841 41.756C37.4039 42.2014 37.3415 42.6558 37.279 43.1101C37.2255 43.5556 37.172 44.0099 37.1364 44.4643L37.1185 44.7137L36.8689 44.6959C35.3887 44.5712 33.9442 44.3218 32.5443 43.9476C31.1177 43.5734 29.7356 43.0745 28.4159 42.4687C27.0784 41.8451 25.7944 41.1146 24.5996 40.286C23.387 39.4486 22.2546 38.5042 21.2113 37.4708C20.1681 36.4374 19.214 35.3149 18.358 34.1122C17.5109 32.9184 16.7619 31.6533 16.1378 30.317C15.5136 29.0074 15.0054 27.6265 14.613 26.2011C14.2296 24.8024 13.9621 23.3591 13.8284 21.8802L13.8016 21.6308C14.5952 21.5595 15.3709 21.5239 16.1645 21.5239C17.1364 21.5239 18.0905 21.5773 19.0357 21.6842C19.9897 21.7911 20.9349 21.9515 21.8622 22.1653C22.7985 22.3791 23.7169 22.6464 24.6085 22.9671C25.5091 23.2878 26.3919 23.6531 27.2479 24.0718C28.0771 24.4727 28.8796 24.9271 29.6553 25.4082C30.44 25.8982 31.189 26.4327 31.9023 27.0029C32.6246 27.573 33.3111 28.1877 33.971 28.8381C34.6219 29.4884 35.2461 30.1744 35.8256 30.8871L35.8791 30.9495L36.1466 30.4417L36.3874 30.0052L36.637 29.5775L36.8867 29.1588L37.172 28.6955L37.4663 28.2323L37.7695 27.769L38.0994 27.279L38.0726 27.2434C37.395 26.4772 36.6727 25.7556 35.9148 25.0696C35.1569 24.3836 34.3633 23.7333 33.543 23.1275C32.7227 22.5217 31.8667 21.9604 30.9839 21.4437C30.1101 20.9359 29.2006 20.4637 28.2733 20.045C27.337 19.6174 26.3651 19.2432 25.3754 18.9136C24.3945 18.5929 23.3959 18.3167 22.3794 18.1029C21.3718 17.8891 20.3464 17.7198 19.3032 17.6129C18.2777 17.506 17.2345 17.4525 16.1823 17.4525C15.897 17.4525 15.6206 17.4525 15.3442 17.4614C15.0589 17.4614 14.7824 17.4792 14.4971 17.4971C14.2207 17.5149 13.9354 17.5327 13.6589 17.5594C13.3736 17.5861 13.0972 17.6129 12.8208 17.6396C12.5622 17.6663 12.3036 17.702 12.045 17.7376C11.7865 17.7732 11.5279 17.8178 11.2693 17.8534C11.0196 17.898 10.761 17.9425 10.5025 17.996C10.2439 18.0494 9.9853 18.1029 9.73564 18.1563H9.69106L9.68214 18.4681L9.66431 19.0828V19.4748C9.66431 21.3457 9.83372 23.1809 10.1726 24.9538C10.5114 26.7712 11.0285 28.5352 11.6884 30.219C12.366 31.9384 13.1953 33.5776 14.1672 35.1189C15.148 36.6779 16.2715 38.139 17.5198 39.4753C18.7682 40.8206 20.1502 42.05 21.6304 43.1369C23.1016 44.2238 24.6799 45.1681 26.3473 45.9699C27.9879 46.7539 29.7088 47.3953 31.4922 47.8675C33.2398 48.3308 35.0499 48.6337 36.9045 48.7673L37.395 48.794L37.8854 48.8207H38.3044L39.0445 48.8386C39.098 48.8386 39.3388 48.8386 39.3744 48.8386C39.3834 48.8386 39.5171 48.8297 39.7044 48.8207C40.1948 48.8029 40.703 48.794 41.1934 48.7584L41.1578 48.1437L41.131 47.4666C41.131 47.1459 41.131 46.8341 41.131 46.5223C41.131 46.2104 41.1399 45.8986 41.1578 45.5868C41.1756 45.2572 41.1934 44.9276 41.2202 44.5979C41.2469 44.2683 41.2826 43.9298 41.3272 43.5912C41.3539 43.3685 41.3896 43.1547 41.4163 42.9409C41.452 42.7271 41.4877 42.5132 41.5233 42.2905C41.559 42.0767 41.6036 41.8629 41.6482 41.658C41.6928 41.4442 41.7373 41.2304 41.7908 41.0255C41.8354 40.8295 41.8889 40.6335 41.9335 40.4375C41.987 40.2415 42.0405 40.0366 42.094 39.8406C42.1475 39.6446 42.2099 39.4486 42.2723 39.2526C42.3348 39.0566 42.3972 38.8606 42.4596 38.6646C42.6201 38.1835 42.7984 37.7203 42.9857 37.2481C43.0927 36.9986 43.1997 36.7492 43.3067 36.4997L43.5207 36.0365L43.7525 35.5554L43.9754 35.11C44.0467 34.9763 44.1181 34.8427 44.1894 34.7091C44.7333 33.7113 45.3396 32.758 46.0084 31.8404C46.6771 30.9228 47.4083 30.0586 48.2019 29.239C48.9865 28.4194 49.8336 27.6621 50.7164 26.9494C51.5991 26.2456 52.5354 25.6042 53.5073 25.0251C54.4703 24.4549 55.4778 23.9382 56.5211 23.4927C57.5465 23.0562 58.6165 22.682 59.7132 22.3791C60.7921 22.0851 61.8978 21.8624 63.0213 21.711C64.1269 21.5595 65.2594 21.4882 66.4096 21.4882C67.2032 21.4882 67.9878 21.5328 68.7814 21.5952L68.7547 21.8446C68.6209 23.3235 68.3534 24.7667 67.97 26.1565C67.5777 27.5819 67.0694 28.9539 66.4453 30.2635C65.8122 31.5909 65.0721 32.8649 64.225 34.0587C63.3779 35.2614 62.4239 36.3839 61.3806 37.4174C60.3552 38.433 59.2496 39.3595 58.0637 40.188C56.8867 41.0076 55.6383 41.7382 54.3276 42.3529C53.0347 42.9587 51.6883 43.4576 50.2884 43.8496C49.0133 44.197 47.6936 44.4554 46.3383 44.5979L46.3472 44.6157Z" fill="white"/>
<path fill-rule="evenodd" clip-rule="evenodd" d="M50.0386 10.5749C49.9316 9.88888 49.7711 9.22071 49.566 8.57036C49.361 7.9111 49.1024 7.27857 48.7992 6.66386C48.4961 6.04914 48.1394 5.45225 47.7381 4.89099C47.3458 4.32973 46.9089 3.8041 46.4363 3.31411C45.9637 2.82412 45.4555 2.36977 44.9116 1.95105C44.3677 1.54124 43.797 1.16707 43.1996 0.837436C42.6111 0.516716 41.9869 0.231631 41.3449 0H41.3271H41.3093C40.6673 0.231631 40.0431 0.516716 39.4546 0.837436C38.8572 1.16707 38.2865 1.54124 37.7426 1.95105C37.1987 2.36086 36.6905 2.82412 36.2179 3.31411C35.7453 3.8041 35.3084 4.32973 34.9161 4.89099C34.5237 5.45225 34.1671 6.04023 33.855 6.66386C33.5518 7.27857 33.2932 7.9111 33.0792 8.57036C32.8742 9.22071 32.7137 9.88888 32.6156 10.5749C32.5086 11.243 32.4551 11.9379 32.4551 12.6328C32.4551 13.3277 32.5086 14.0226 32.6156 14.6908C32.7226 15.3768 32.8742 16.0449 33.0882 16.6953C33.2932 17.3545 33.5518 17.9871 33.855 18.6018C34.1581 19.2165 34.5148 19.8134 34.9161 20.3747C35.3084 20.9359 35.7453 21.4615 36.2179 21.9515C36.6905 22.4415 37.1987 22.8959 37.7426 23.3146C38.2776 23.7244 38.8572 24.0986 39.4546 24.4282C40.0431 24.7489 40.6673 25.034 41.3093 25.2656H41.3271H41.3449C41.9869 25.034 42.6111 24.7489 43.1996 24.4282C43.797 24.0986 44.3677 23.7244 44.9116 23.3146C45.4555 22.9048 45.9637 22.4415 46.4363 21.9515C46.9089 21.4615 47.3458 20.9359 47.7381 20.3747C48.1305 19.8134 48.4871 19.2254 48.7992 18.6018C49.1024 17.9871 49.361 17.3545 49.566 16.6953C49.7711 16.0449 49.9316 15.3768 50.0386 14.6908C50.1456 14.0226 50.1991 13.3277 50.1991 12.6328C50.1991 11.9379 50.1456 11.243 50.0386 10.5749ZM45.4198 9.06035C45.5714 9.43452 45.7052 9.81761 45.8122 10.2185C45.9192 10.6105 45.9994 11.0025 46.0529 11.4123C46.1064 11.8132 46.1332 12.223 46.1332 12.6328C46.1332 13.0426 46.1064 13.4524 46.0529 13.8533C45.9994 14.2631 45.9192 14.664 45.8122 15.0471C45.7052 15.4391 45.5714 15.8311 45.4198 16.2053C45.2593 16.5795 45.081 16.9536 44.8759 17.3011C44.6708 17.6574 44.439 17.996 44.1982 18.3167C43.9486 18.6374 43.6811 18.9492 43.3868 19.2432C43.1015 19.5372 42.7894 19.8045 42.4684 20.0539C42.1474 20.3034 41.8086 20.5261 41.4519 20.7399L41.3271 20.8112L41.2023 20.7399C40.8456 20.535 40.5068 20.3034 40.1858 20.0539C39.8648 19.8045 39.5527 19.5372 39.2674 19.2432C38.982 18.9492 38.7056 18.6463 38.456 18.3167C38.2063 17.996 37.9834 17.6574 37.7783 17.3011C37.5732 16.9536 37.3949 16.5884 37.2344 16.2053C37.0828 15.8311 36.949 15.448 36.842 15.0471C36.735 14.6551 36.6548 14.2631 36.6102 13.8533C36.5567 13.4524 36.53 13.0426 36.53 12.6328C36.53 12.223 36.5567 11.8132 36.6102 11.4123C36.6637 11.0025 36.744 10.6016 36.842 10.2185C36.949 9.82652 37.0828 9.43452 37.2344 9.06035C37.3949 8.68618 37.5732 8.312 37.7783 7.96456C37.9834 7.6082 38.2152 7.26966 38.456 6.94894C38.7056 6.62822 38.9731 6.31641 39.2674 6.02242C39.5527 5.72842 39.8648 5.46116 40.1858 5.21171C40.5068 4.96226 40.8545 4.73063 41.2023 4.52572L41.3271 4.45445L41.4519 4.52572C41.8086 4.73063 42.1474 4.96226 42.4684 5.21171C42.7894 5.46116 43.1015 5.72842 43.3868 6.02242C43.6722 6.31641 43.9486 6.61931 44.1982 6.94894C44.4479 7.26966 44.6708 7.6082 44.8759 7.96456C45.081 8.312 45.2593 8.67727 45.4198 9.06035Z" fill="white"/>
<path fill-rule="evenodd" clip-rule="evenodd" d="M41.55 76.278V98.9244H45.616V98.871C45.616 96.2874 45.616 94.0067 45.616 91.7349V91.4053C45.616 86.3985 45.6339 81.3917 45.616 76.3938C45.616 74.5497 45.7944 72.7501 46.1421 71.0039C46.4988 69.2132 47.0248 67.4938 47.7025 65.8457C48.398 64.1708 49.254 62.5761 50.2527 61.0794C51.2602 59.5738 52.4105 58.1662 53.6945 56.8922C54.9695 55.6182 56.3784 54.4601 57.8853 53.4534C59.3743 52.4556 60.9704 51.6003 62.6557 50.9054C64.3052 50.2195 66.0261 49.6938 67.8184 49.3464C69.5571 48.9989 71.3583 48.8208 73.204 48.8208C73.3823 48.8208 73.5696 48.8208 73.7479 48.8208C73.9263 48.8208 74.1046 48.8297 74.2829 48.8386C74.4612 48.8386 74.6396 48.8564 74.8179 48.8653C75.0052 48.8742 75.1835 48.892 75.3707 48.9009C75.5402 48.9188 75.7185 48.9277 75.9057 48.9455C76.093 48.9633 76.2713 48.9811 76.4496 49.0078C76.628 49.0257 76.8152 49.0524 76.9936 49.0791C77.1719 49.1058 77.3502 49.1326 77.5286 49.1593L77.7069 49.186L77.7336 49.3642C77.7604 49.5424 77.7871 49.7206 77.8139 49.8987C77.8406 50.0769 77.8585 50.2551 77.8852 50.4333C77.9031 50.6025 77.9209 50.7807 77.9387 50.9678C77.9566 51.146 77.9744 51.3242 77.9833 51.4934L78.019 52.028C78.0279 52.2061 78.0368 52.3754 78.0457 52.5536L78.0636 53.0881V53.6227C78.0636 57.3377 77.3324 60.8745 76.0038 64.1084C74.6217 67.4671 72.5977 70.4961 70.0832 73.0262C67.5687 75.5653 64.5549 77.6232 61.2112 79.0308C57.9923 80.3939 54.4524 81.1601 50.7431 81.1868H50.6896V85.2492H50.7431C52.8385 85.2314 54.8804 85.0176 56.8599 84.6078C58.8839 84.198 60.8456 83.5833 62.7092 82.8082C64.6084 82.0153 66.4185 81.0353 68.1126 79.895C69.8246 78.7457 71.4118 77.4361 72.8652 75.984C74.3275 74.5229 75.6561 72.9104 76.8063 71.1821C77.9476 69.4716 78.9374 67.6364 79.731 65.712C80.5156 63.8233 81.113 61.8456 81.5232 59.7965C81.9155 57.8009 82.1295 55.7341 82.1295 53.6137C82.1295 53.2752 82.1295 52.9367 82.1117 52.5981C82.1028 52.2596 82.0849 51.9211 82.0671 51.5825C82.0493 51.244 82.0225 50.9054 81.9869 50.5847C81.9512 50.2462 81.9155 49.9165 81.8709 49.578C81.8264 49.2573 81.7818 48.9366 81.7372 48.6159C81.6837 48.304 81.6302 47.9833 81.5678 47.6715C81.5054 47.3508 81.443 47.039 81.3716 46.7272C81.3003 46.4154 81.229 46.1035 81.1487 45.7917V45.7561H81.113C80.801 45.6759 80.48 45.5957 80.159 45.5245C79.8469 45.4532 79.5259 45.3908 79.2049 45.3285C78.8839 45.2661 78.5629 45.2127 78.2508 45.1592C77.9298 45.1057 77.6088 45.0612 77.2878 45.0167C76.949 44.9721 76.6102 44.9365 76.2713 44.9008C75.9414 44.8652 75.6026 44.8385 75.2548 44.8207C74.916 44.8028 74.5682 44.785 74.2294 44.7672C73.8906 44.7583 73.5518 44.7494 73.204 44.7494C71.0908 44.7494 69.0221 44.9543 67.0248 45.3552C64.974 45.765 62.9945 46.3619 61.1042 47.1459C59.1782 47.9477 57.3503 48.9277 55.6383 50.068C53.9085 51.2262 52.3035 52.5447 50.8322 54.0146C49.3699 55.4757 48.0413 57.0882 46.8911 58.8165C45.7498 60.5271 44.76 62.3623 43.9665 64.2866C43.1907 66.1575 42.5933 68.1174 42.1831 70.1487C41.7908 72.1264 41.5768 74.1755 41.5679 76.2691L41.55 76.278Z" fill="white"/>
</svg>
