<svg xmlns="http://www.w3.org/2000/svg" xmlns:xlink="http://www.w3.org/1999/xlink" aria-hidden="true" role="img" class="iconify iconify--logos" width="35.93" height="32" preserveAspectRatio="xMidYMid meet" viewBox="0 0 256 228"><path fill="#00D8FF" d="M210.483 73.824a171.49 171.49 0 0 0-8.24-2.597c.465-1.9.893-3.777 1.273-5.621c6.238-30.281 2.16-54.676-11.769-62.708c-13.355-7.7-35.196.329-57.254 19.526a171.23 171.23 0 0 0-6.375 5.848a155.866 155.866 0 0 0-4.241-3.917C100.759 3.829 77.587-4.822 63.673 3.233C50.33 10.957 46.379 33.89 51.995 62.588a170.974 170.974 0 0 0 1.892 8.48c-3.28.932-6.445 1.924-9.474 2.98C17.309 83.498 0 98.307 0 113.668c0 15.865 18.582 31.778 46.812 41.427a145.52 145.52 0 0 0 6.921 2.165a167.467 167.467 0 0 0-2.01 9.138c-5.354 28.2-1.173 50.591 12.134 58.266c13.744 7.926 36.812-.22 59.273-19.855a145.567 145.567 0 0 0 5.342-4.923a168.064 168.064 0 0 0 6.92 6.314c21.758 18.722 43.246 26.282 56.54 18.586c13.731-7.949 18.194-32.003 12.4-61.268a145.016 145.016 0 0 0-1.535-6.842c1.62-.48 3.21-.974 4.76-1.488c29.348-9.723 48.443-25.443 48.443-41.52c0-15.417-17.868-30.326-45.517-39.844Zm-6.365 70.984c-1.4.463-2.836.91-4.3 1.345c-3.24-10.257-7.612-21.163-12.963-32.432c5.106-11 9.31-21.767 12.459-31.957c2.619.758 5.16 1.557 7.61 2.4c23.69 8.156 38.14 20.213 38.14 29.504c0 9.896-15.606 22.743-40.946 31.14Zm-10.514 20.834c2.562 12.94 2.927 24.64 1.23 33.787c-1.524 8.219-4.59 13.698-8.382 15.893c-8.067 4.67-25.32-1.4-43.927-17.412a156.8 156.8 0 0 1-6.437-5.87c7.214-7.889 14.423-17.06 21.459-27.246c12.376-1.098 24.068-2.894 34.671-5.345a134.17 134.17 0 0 1 1.386 6.193ZM87.276 214.515c-7.882 2.783-14.16 2.863-17.955.675c-8.075-4.657-11.432-22.636-6.853-46.752a156.8 156.8 0 0 1 1.869-8.499c10.486 2.32 22.093 3.988 34.474 4.994c7.084 9.967 14.501 19.128 21.976 27.15a134.239 134.239 0 0 1-4.677 4.291c-9.933 8.682-19.886 14.842-28.834 18.141Zm-9.877-65.342c-5.354-11.038-9.622-21.896-12.748-32.237c-3.15 10.42-7.448 21.34-12.843 32.44c-1.4-.463-2.836-.91-4.3-1.345C26.6 144.8 11.2 132.4 11.2 122.4c0-9.322 14.32-21.2 37.64-29.4c2.6-.9 5.2-1.7 7.9-2.5c3.1 10.1 7.3 20.9 12.4 31.9c5.4 11.3 9.7 22.2 12.9 32.5c-3.2.9-6.4 1.8-9.5 2.7l-.1.1Zm11.2-65.8c-1.7-9.1-1.3-20.8 1.3-33.7a134.17 134.17 0 0 1 1.4-6.2c10.6-2.4 22.3-4.2 34.7-5.3c7-10 14.3-19.1 21.8-27.1a156.8 156.8 0 0 1 6.4 5.9c18.6 16 35.9 22.1 43.9 17.4c3.8-2.2 6.8-7.7 8.3-15.9c1.7-9.1 1.3-20.8-1.2-33.7c-8.9-3.3-18.8-9.5-28.7-18.1a134.239 134.239 0 0 1-4.7-4.3c-7.5-8-14.9-17.2-22-27.2c-12.4-1-24.1-2.8-34.6-5.2a156.8 156.8 0 0 1-1.9 8.5c-4.6 24.1-1.2 42.1 6.9 46.8c3.8 2.2 10.1 2.1 18-.7c8.7-7.6 18.1-18.1 27.3-29.8c-9.1-11.7-18.5-22.2-27.2-29.8c-8.1-3.6-14.4-3.5-18.2-1.3c-8.1 4.7-11.4 22.6-6.9 46.7a156.8 156.8 0 0 1 1.9 8.5c10.5 2.3 22.1 4 34.5 5c7.1 10 14.4 19.1 21.9 27.1a156.8 156.8 0 0 1-6.4 5.9c-18.6 16-35.9 22.1-43.9 17.4c-3.8-2.2-6.8-7.7-8.3-15.9Zm110.6 27.1a347.8 347.8 0 0 0-7.1-12.9c8.4 1.2 16.1 2.8 22.8 4.6c-1.8 6.3-4.1 12.5-6.8 18.4a381.456 381.456 0 0 1-8.9-10.1Zm-45.6 15.2c-5.3 5.8-10.8 11.1-16.3 15.9a347.8 347.8 0 0 1-7.1-12.9c5.5-4.8 11-10.1 16.3-15.9c5.3 5.8 10.8 11.1 16.3 15.9a347.8 347.8 0 0 1-7.1 12.9c-5.5-4.8-11-10.1-16.3-15.9Zm-22.3 35.1c-3.8 3.1-7.7 5.9-11.7 8.4a347.8 347.8 0 0 1-6.8-18.4c6.7-1.8 14.4-3.4 22.8-4.6a381.456 381.456 0 0 1-4.3 14.6Zm-43.4 8.3c-7.9 2.1-15.1 3.5-21.3 4.1c-1.6-6.4-2.7-13-3.4-19.7c7.6-1 15.7-2.3 24-3.9a381.456 381.456 0 0 1 .7 19.5Zm-25.3 6.6c-6.2.6-13.4.7-21.5.1a381.456 381.456 0 0 1-3.4-19.7c8.3 1.6 16.4 2.9 24 3.9a381.456 381.456 0 0 1 1 15.7Zm22.3 44.1c-5.3-5.8-10.8-11.1-16.3-15.9a347.8 347.8 0 0 1 7.1-12.9c5.5 4.8 11 10.1 16.3 15.9c5.3-5.8 10.8-11.1 16.3-15.9a347.8 347.8 0 0 1 7.1 12.9c-5.5 4.8-11 10.1-16.3 15.9a347.8 347.8 0 0 1-7.1-12.9c5.5-4.8 11-10.1 16.3-15.9Zm22.3 35.1c3.8-3.1 7.7-5.9 11.7-8.4a347.8 347.8 0 0 1 6.8 18.4c-6.7 1.8-14.4 3.4-22.8 4.6a381.456 381.456 0 0 1 4.3-14.6Zm43.4-8.3c7.9-2.1 15.1-3.5 21.3-4.1c1.6 6.4 2.7 13 3.4 19.7c-7.6 1-15.7 2.3-24 3.9a381.456 381.456 0 0 1-.7-19.5Zm25.3-6.6c6.2-.6 13.4-.7 21.5-.1a381.456 381.456 0 0 1 3.4 19.7c-8.3-1.6-16.4-2.9-24-3.9a381.456 381.456 0 0 1-1-15.7Zm22.3-44.1c5.3 5.8 10.8 11.1 16.3 15.9a347.8 347.8 0 0 1-7.1 12.9c-5.5-4.8-11-10.1-16.3-15.9c-5.3 5.8-10.8 11.1-16.3 15.9a347.8 347.8 0 0 1-7.1-12.9c5.5 4.8 11 10.1 16.3 15.9a347.8 347.8 0 0 1 7.1-12.9c-5.5 4.8-11 10.1-16.3 15.9Zm-22.3-35.1c-3.8 3.1-7.7 5.9-11.7 8.4a347.8 347.8 0 0 1-6.8-18.4c6.7-1.8 14.4-3.4 22.8-4.6a381.456 381.456 0 0 1-4.3 14.6Zm-43.4 8.3c-7.9 2.1-15.1 3.5-21.3 4.1c-1.6-6.4-2.7-13-3.4-19.7c7.6-1 15.7-2.3 24-3.9a381.456 381.456 0 0 1 .7 19.5Zm-25.3 6.6c-6.2.6-13.4.7-21.5.1a381.456 381.456 0 0 1-3.4-19.7c8.3 1.6 16.4 2.9 24 3.9a381.456 381.456 0 0 1 1 15.7Zm45.6-15.2c5.3-5.8 10.8-11.1 16.3-15.9a347.8 347.8 0 0 1 7.1 12.9c-5.5 4.8-11 10.1-16.3 15.9c-5.3-5.8-10.8-11.1-16.3-15.9a347.8 347.8 0 0 1-7.1-12.9c5.5-4.8 11-10.1 16.3-15.9c5.3 5.8 10.8 11.1 16.3 15.9a347.8 347.8 0 0 1 7.1-12.9c-5.5 4.8-11-10.1-16.3-15.9Zm22.3-35.1c3.8-3.1 7.7-5.9 11.7-8.4a347.8 347.8 0 0 1 6.8 18.4c-6.7 1.8-14.4 3.4-22.8 4.6a381.456 381.456 0 0 1-4.3-14.6Zm43.4-8.3c7.9-2.1 15.1-3.5 21.3-4.1c1.6 6.4 2.7 13 3.4 19.7c-7.6 1-15.7 2.3-24 3.9a381.456 381.456 0 0 1-.7-19.5Zm25.3-6.6c6.2-.6 13.4-.7 21.5-.1a381.456 381.456 0 0 1 3.4 19.7c-8.3-1.6-16.4-2.9-24-3.9a381.456 381.456 0 0 1-1-15.7Zm-22.3-44.1c-5.3-5.8-10.8-11.1-16.3-15.9a347.8 347.8 0 0 1-7.1-12.9c5.5 4.8 11 10.1 16.3 15.9c-5.3-5.8-10.8-11.1-16.3-15.9a347.8 347.8 0 0 1-7.1-12.9c5.5 4.8 11 10.1 16.3 15.9a347.8 347.8 0 0 1 7.1-12.9c-5.5 4.8-11-10.1-16.3-15.9Zm-22.3-35.1c-3.8 3.1-7.7 5.9-11.7 8.4a347.8 347.8 0 0 1-6.8-18.4c6.7-1.8 14.4-3.4 22.8-4.6a381.456 381.456 0 0 1 4.3-14.6Zm-43.4 8.3c-7.9 2.1-15.1 3.5-21.3 4.1c-1.6-6.4-2.7-13-3.4-19.7c7.6-1 15.7-2.3 24-3.9a381.456 381.456 0 0 1 .7 19.5Zm-25.3 6.6c-6.2.6-13.4.7-21.5.1a381.456 381.456 0 0 1-3.4-19.7c8.3 1.6 16.4 2.9 24 3.9a381.456 381.456 0 0 1 1 15.7Zm45.6-15.2c5.3-5.8 10.8-11.1 16.3-15.9a347.8 347.8 0 0 1 7.1 12.9c-5.5 4.8-11 10.1-16.3 15.9c-5.3-5.8-10.8-11.1-16.3-15.9a347.8 347.8 0 0 1-7.1-12.9c5.5 4.8 11 10.1 16.3 15.9c5.3 5.8 10.8 11.1 16.3 15.9a347.8 347.8 0 0 1 7.1-12.9c-5.5 4.8-11-10.1-16.3-15.9Zm22.3-35.1c3.8-3.1 7.7-5.9 11.7-8.4a347.8 347.8 0 0 1 6.8 18.4c-6.7 1.8-14.4 3.4-22.8 4.6a381.456 381.456 0 0 1-4.3-14.6Zm43.4-8.3c7.9-2.1 15.1-3.5 21.3-4.1c1.6 6.4 2.7 13 3.4 19.7c-7.6 1-15.7 2.3-24 3.9a381.456 381.456 0 0 1-.7-19.5Zm25.3-6.6c6.2-.6 13.4-.7 21.5-.1a381.456 381.456 0 0 1 3.4 19.7c-8.3-1.6-16.4-2.9-24-3.9a381.456 381.456 0 0 1-1-15.7Z"></path></svg>
